<?xml version="1.0" encoding="utf-8"?><svg xmlns="http://www.w3.org/2000/svg" xmlns:xlink="http://www.w3.org/1999/xlink" width="2560" height="1332" preserveAspectRatio="xMidYMid" viewBox="0 0 2560 1332" style="z-index:1;margin-right:-2px;display:block;background-repeat-y:initial;background-repeat-x:initial;background-color:rgb(241, 242, 243);animation-play-state:paused" ><g transform="translate(1280,666) scale(1,1) translate(-1280,-666)" style="animation-play-state:paused" ><linearGradient id="lg-0.8248458784436493" x1="0" x2="1" y1="0" y2="0" style="animation-play-state:paused" ><stop stop-color="#00d4f5" offset="0" style="animation-play-state:paused"></stop>

<stop stop-color="#31addf" offset="1" style="animation-play-state:paused" ></stop></linearGradient>
<path d="M0 0L0 1226.968017578125Q256 1046.2271728515625 512 1024.8348388671875T1024 984.248046875T1536 724.1587524414062T2048 571.8019409179688T2560 463.97918701171875L2560 0Z" fill="url(#lg-0.8248458784436493)" opacity="0.4" style="opacity:0.4000000059604645;animation-play-state:paused" ></path>
<path d="M0 0L0 1165.65185546875Q256 1141.822509765625 512 1099.457763671875T1024 923.9171142578125T1536 780.9384765625T2048 713.6980590820312T2560 617.2440185546875L2560 0Z" fill="url(#lg-0.8248458784436493)" opacity="0.4" style="opacity:0.4000000059604645;animation-play-state:paused" ></path>
<path d="M0 0L0 1245.4541015625Q256 1204.877685546875 512 1186.239501953125T1024 956.0309448242188T1536 876.1577758789062T2048 673.6160888671875T2560 689.455322265625L2560 0Z" fill="url(#lg-0.8248458784436493)" opacity="0.4" style="opacity:0.4000000059604645;animation-play-state:paused" ></path>
<path d="M0 0L0 1165.96240234375Q256 1084.012939453125 512 1057.7640380859375T1024 900.7045288085938T1536 830.2427978515625T2048 743.9747314453125T2560 569.5161743164062L2560 0Z" fill="url(#lg-0.8248458784436493)" opacity="0.4" style="opacity:0.4000000059604645;animation-play-state:paused" ></path>
<path d="M0 0L0 1246.579833984375Q256 1174.678466796875 512 1147.7705078125T1024 947.7491455078125T1536 780.5170288085938T2048 697.5977783203125T2560 558.8638305664062L2560 0Z" fill="url(#lg-0.8248458784436493)" opacity="0.4" style="opacity:0.4000000059604645;animation-play-state:paused" ></path></g></svg>